<svg width="375" height="387" viewBox="0 0 375 387" fill="none" xmlns="http://www.w3.org/2000/svg">
<g clip-path="url(#clip0_10_74)">
<path d="M36.0622 326.014L32.7595 312.611C26.9037 310.058 20.9126 307.846 14.8148 305.987L14.3979 312.216L12.7073 305.354C5.14484 303.129 0 302.151 0 302.151C0 302.151 6.94772 329.341 21.5249 350.128L38.5085 353.198L25.3144 355.155C27.148 357.425 29.1186 359.575 31.2144 361.59C52.4176 381.841 76.0343 391.132 83.9633 382.342C91.8922 373.552 81.1313 350.011 59.9282 329.763C53.355 323.485 45.0978 318.447 36.832 314.482L36.0622 326.014Z" fill="#F2F2F2"/>
<path d="M67.471 311.456L71.3768 298.227C67.6471 292.927 63.6299 287.847 59.3442 283.012L55.8582 288.123L57.858 281.349C52.5007 275.425 48.5883 271.851 48.5883 271.851C48.5883 271.851 40.8778 298.823 42.9118 324.37L55.9086 336.031L43.6282 330.689C44.0579 333.608 44.6656 336.496 45.4477 339.337C53.4255 367.949 68.9748 388.463 80.1778 385.156C91.3807 381.849 93.9957 355.973 86.0179 327.361C83.5449 318.491 79.0067 309.787 73.9233 301.996L67.471 311.456Z" fill="#F2F2F2"/>
<path d="M261.673 91.6805H259.613V33.6106C259.613 29.1968 258.768 24.8262 257.126 20.7484C255.485 16.6706 253.079 12.9654 250.045 9.84432C247.012 6.72329 243.411 4.24754 239.448 2.55845C235.484 0.869362 231.237 0 226.947 0H107.372C98.7085 0 90.3998 3.54111 84.2738 9.84432C78.1477 16.1475 74.7062 24.6965 74.7062 33.6106V352.192C74.7062 356.606 75.5511 360.977 77.1927 365.054C78.8343 369.132 81.2405 372.837 84.2738 375.958C87.3071 379.08 90.9082 381.555 94.8714 383.244C98.8346 384.933 103.082 385.803 107.372 385.803H226.947C235.61 385.803 243.919 382.262 250.045 375.958C256.171 369.655 259.612 361.106 259.612 352.192V133.016H261.673L261.673 91.6805Z" fill="#E6E6E6"/>
<path d="M228.265 8.74103H212.658C213.376 10.5518 213.65 12.5164 213.456 14.4618C213.262 16.4073 212.606 18.2737 211.545 19.8968C210.485 21.5198 209.053 22.8497 207.376 23.7692C205.698 24.6887 203.827 25.1695 201.926 25.1695H133.423C131.522 25.1694 129.651 24.6884 127.974 23.7688C126.296 22.8493 124.865 21.5194 123.805 19.8963C122.744 18.2733 122.088 16.4069 121.895 14.4616C121.701 12.5163 121.975 10.5517 122.692 8.74103H108.114C101.644 8.74103 95.4395 11.3855 90.8646 16.0927C86.2897 20.7999 83.7196 27.1842 83.7196 33.8411V351.96C83.7196 358.617 86.2897 365.001 90.8646 369.709C95.4395 374.416 101.644 377.06 108.114 377.06H228.265C234.735 377.06 240.94 374.416 245.515 369.709C250.089 365.001 252.66 358.617 252.66 351.96V33.8406C252.659 27.1837 250.089 20.7996 245.514 16.0925C240.94 11.3854 234.735 8.74103 228.265 8.74103Z" fill="white"/>
<path d="M152.879 135.464C152.879 133.24 153.448 131.055 154.529 129.13C155.61 127.204 157.164 125.606 159.036 124.495C157.165 123.383 155.042 122.797 152.881 122.797C150.721 122.797 148.598 123.382 146.726 124.494C144.855 125.605 143.3 127.204 142.22 129.13C141.139 131.055 140.571 133.239 140.571 135.463C140.571 137.686 141.139 139.87 142.22 141.796C143.3 143.721 144.855 145.32 146.726 146.432C148.598 147.543 150.721 148.129 152.881 148.128C155.042 148.128 157.165 147.542 159.036 146.43C157.164 145.32 155.61 143.722 154.529 141.796C153.448 139.871 152.879 137.687 152.879 135.464Z" fill="#CCCCCC"/>
<path d="M168.354 135.464C168.354 133.24 168.922 131.055 170.003 129.13C171.084 127.204 172.639 125.606 174.511 124.495C172.64 123.383 170.517 122.797 168.356 122.797C166.195 122.797 164.072 123.382 162.201 124.494C160.329 125.605 158.775 127.204 157.695 129.13C156.614 131.055 156.045 133.239 156.045 135.463C156.045 137.686 156.614 139.87 157.695 141.796C158.775 143.721 160.329 145.32 162.201 146.432C164.072 147.543 166.195 148.129 168.356 148.128C170.517 148.128 172.64 147.542 174.511 146.43C172.639 145.32 171.084 143.722 170.004 141.796C168.923 139.871 168.354 137.687 168.354 135.464Z" fill="#CCCCCC"/>
<path d="M183.477 148.129C190.276 148.129 195.787 142.458 195.787 135.463C195.787 128.468 190.276 122.797 183.477 122.797C176.679 122.797 171.168 128.468 171.168 135.463C171.168 142.458 176.679 148.129 183.477 148.129Z" fill="#7C000B"/>
<path d="M204.05 175.023H132.307C131.624 175.022 130.969 174.742 130.486 174.245C130.003 173.748 129.731 173.075 129.731 172.372V98.5541C129.731 97.8514 130.003 97.1776 130.486 96.6807C130.969 96.1838 131.624 95.9043 132.307 95.9034H204.05C204.733 95.9043 205.388 96.1838 205.87 96.6807C206.353 97.1776 206.625 97.8514 206.626 98.5541V172.372C206.625 173.075 206.353 173.748 205.87 174.245C205.388 174.742 204.733 175.022 204.05 175.023ZM132.307 96.9643C131.897 96.9648 131.504 97.1324 131.214 97.4306C130.925 97.7287 130.762 98.133 130.761 98.5547V172.372C130.762 172.794 130.925 173.198 131.214 173.496C131.504 173.795 131.897 173.962 132.307 173.963H204.05C204.46 173.962 204.852 173.795 205.142 173.496C205.432 173.198 205.595 172.794 205.595 172.372V98.5547C205.595 98.133 205.432 97.7287 205.142 97.4306C204.852 97.1324 204.46 96.9648 204.05 96.9643H132.307Z" fill="#CCCCCC"/>
<path d="M220.069 231.607H110.037V232.668H220.069V231.607Z" fill="#CCCCCC"/>
<path d="M113.512 224.987C115.431 224.987 116.987 223.386 116.987 221.412C116.987 219.437 115.431 217.836 113.512 217.836C111.593 217.836 110.037 219.437 110.037 221.412C110.037 223.386 111.593 224.987 113.512 224.987Z" fill="#7C000B"/>
<path d="M220.069 267.359H110.037V268.419H220.069V267.359Z" fill="#CCCCCC"/>
<path d="M113.512 260.739C115.431 260.739 116.987 259.138 116.987 257.164C116.987 255.189 115.431 253.588 113.512 253.588C111.593 253.588 110.037 255.189 110.037 257.164C110.037 259.138 111.593 260.739 113.512 260.739Z" fill="#7C000B"/>
<path d="M218.055 308.071H183.282C182.681 308.071 182.106 307.825 181.681 307.388C181.256 306.951 181.017 306.358 181.017 305.74V293.2C181.017 292.582 181.256 291.989 181.681 291.552C182.106 291.115 182.681 290.87 183.282 290.869H218.055C218.656 290.87 219.232 291.115 219.656 291.552C220.081 291.989 220.32 292.582 220.321 293.2V305.74C220.32 306.358 220.081 306.951 219.656 307.388C219.232 307.825 218.656 308.071 218.055 308.071Z" fill="#7C000B"/>
<path d="M124.847 224.987C126.766 224.987 128.321 223.386 128.321 221.412C128.321 219.437 126.766 217.836 124.847 217.836C122.927 217.836 121.372 219.437 121.372 221.412C121.372 223.386 122.927 224.987 124.847 224.987Z" fill="#7C000B"/>
<path d="M136.181 224.987C138.101 224.987 139.656 223.386 139.656 221.412C139.656 219.437 138.101 217.836 136.181 217.836C134.262 217.836 132.707 219.437 132.707 221.412C132.707 223.386 134.262 224.987 136.181 224.987Z" fill="#7C000B"/>
<path d="M124.847 260.739C126.766 260.739 128.321 259.138 128.321 257.164C128.321 255.189 126.766 253.588 124.847 253.588C122.927 253.588 121.372 255.189 121.372 257.164C121.372 259.138 122.927 260.739 124.847 260.739Z" fill="#7C000B"/>
<path d="M136.181 260.739C138.101 260.739 139.656 259.138 139.656 257.164C139.656 255.189 138.101 253.588 136.181 253.588C134.262 253.588 132.707 255.189 132.707 257.164C132.707 259.138 134.262 260.739 136.181 260.739Z" fill="#7C000B"/>
<path d="M373.599 387H12.1233C11.3495 387 10.7227 386.717 10.7227 386.369C10.7227 386.021 11.3495 385.738 12.1233 385.738H373.599C374.373 385.738 375 386.02 375 386.369C375 386.718 374.373 387 373.599 387Z" fill="#3F3D56"/>
<path d="M284.291 253.55C284.538 253.666 284.776 253.803 285.001 253.958L307.583 244.042L308.389 237.921L317.411 237.864L316.878 251.902L287.074 260.012C287.011 260.225 286.936 260.434 286.848 260.638C286.418 261.584 285.725 262.378 284.857 262.92C283.989 263.462 282.984 263.728 281.97 263.685C280.955 263.642 279.975 263.291 279.154 262.677C278.332 262.063 277.706 261.213 277.352 260.233C276.999 259.254 276.935 258.188 277.167 257.171C277.4 256.155 277.92 255.231 278.662 254.517C279.403 253.803 280.333 253.33 281.334 253.158C282.336 252.986 283.365 253.123 284.291 253.55Z" fill="#FFB8B8"/>
<path d="M320.693 380.755H314.521L311.584 356.259L320.694 356.259L320.693 380.755Z" fill="#FFB8B8"/>
<path d="M310.112 378.94H322.015V386.652H302.617C302.617 384.606 303.406 382.645 304.812 381.199C306.218 379.752 308.124 378.94 310.112 378.94Z" fill="#2F2E41"/>
<path d="M344.698 378.96L338.555 379.583L333.299 355.501L342.364 354.582L344.698 378.96Z" fill="#FFB8B8"/>
<path d="M333.995 378.222L345.841 377.021L346.576 384.696L327.271 386.652C327.174 385.644 327.272 384.627 327.557 383.658C327.843 382.689 328.312 381.787 328.936 381.004C329.56 380.221 330.329 379.573 331.197 379.095C332.065 378.618 333.015 378.321 333.995 378.222Z" fill="#2F2E41"/>
<path d="M322.411 211.94C329.24 211.94 334.776 206.243 334.776 199.216C334.776 192.19 329.24 186.493 322.411 186.493C315.582 186.493 310.046 192.19 310.046 199.216C310.046 206.243 315.582 211.94 322.411 211.94Z" fill="#FFB8B8"/>
<path d="M313.141 375.801C312.611 375.802 312.097 375.611 311.69 375.261C311.284 374.91 311.01 374.423 310.918 373.886C307.724 355.638 297.281 295.973 297.031 294.32C297.026 294.282 297.023 294.244 297.023 294.205V289.757C297.023 289.595 297.072 289.437 297.164 289.305L298.543 287.317C298.609 287.221 298.695 287.142 298.795 287.086C298.895 287.03 299.006 286.998 299.119 286.993C306.984 286.614 332.742 285.502 333.987 287.101C335.236 288.709 334.795 293.58 334.694 294.54L334.699 294.64L346.271 370.787C346.361 371.394 346.216 372.014 345.866 372.511C345.516 373.009 344.989 373.345 344.4 373.447L337.173 374.672C336.634 374.761 336.083 374.648 335.618 374.354C335.154 374.06 334.808 373.604 334.642 373.07C332.407 365.72 324.911 340.995 322.313 331.428C322.297 331.367 322.26 331.315 322.209 331.28C322.158 331.246 322.096 331.232 322.036 331.24C321.975 331.249 321.92 331.28 321.88 331.328C321.84 331.376 321.819 331.437 321.82 331.5C321.949 340.62 322.263 363.888 322.371 371.924L322.383 372.79C322.388 373.376 322.179 373.942 321.797 374.378C321.416 374.813 320.889 375.085 320.322 375.14L313.353 375.791C313.282 375.798 313.211 375.801 313.141 375.801Z" fill="#2F2E41"/>
<path d="M314.563 216.942C312.405 218.262 311.114 220.688 310.373 223.156C309.001 227.726 308.175 232.45 307.914 237.225L307.131 251.523L297.437 289.426C305.839 296.741 310.685 295.078 321.996 289.095C333.306 283.112 334.598 291.09 334.598 291.09L336.86 258.839L340.092 223.597C339.366 222.698 338.545 221.886 337.644 221.176C334.657 218.786 331.182 217.125 327.481 216.318C323.779 215.511 319.948 215.578 316.276 216.516L314.563 216.942Z" fill="#7C000B"/>
<path d="M311.415 261.205C311.675 261.306 311.928 261.428 312.17 261.57L334.498 250.071L334.868 243.842L344.078 243.189L344.572 257.389L314.734 267.542C314.49 268.617 313.934 269.59 313.14 270.332C312.346 271.075 311.35 271.55 310.287 271.696C309.223 271.842 308.142 271.652 307.186 271.15C306.23 270.648 305.445 269.859 304.936 268.887C304.427 267.915 304.218 266.807 304.336 265.709C304.454 264.612 304.893 263.578 305.597 262.744C306.3 261.91 307.233 261.316 308.272 261.041C309.312 260.766 310.408 260.824 311.415 261.205Z" fill="#FFB8B8"/>
<path d="M339.93 223.758C345.423 225.753 346.391 247.366 346.391 247.366C339.928 243.709 332.173 249.694 332.173 249.694C332.173 249.694 330.557 244.041 328.618 236.727C328.033 234.669 327.963 232.493 328.415 230.4C328.867 228.307 329.826 226.366 331.203 224.757C331.203 224.757 334.436 221.762 339.93 223.758Z" fill="#7C000B"/>
<path d="M333.499 202.581C331.958 201.313 329.856 203.618 329.856 203.618L328.623 192.204C328.623 192.204 320.92 193.154 315.99 191.887C311.06 190.621 310.289 196.485 310.289 196.485C310.035 194.116 309.984 191.729 310.135 189.351C310.443 186.498 314.449 183.644 321.536 181.742C328.623 179.84 332.321 188.083 332.321 188.083C337.251 190.619 335.039 203.849 333.499 202.581Z" fill="#2F2E41"/>
</g>
<defs>
<clipPath id="clip0_10_74">
<rect width="375" height="387" fill="white"/>
</clipPath>
</defs>
</svg>
