<svg width="375" height="300" viewBox="0 0 375 300" fill="none" xmlns="http://www.w3.org/2000/svg">
<g clip-path="url(#clip0_11_425)">
<path d="M74.7163 300C115.981 300 149.433 297.079 149.433 293.475C149.433 289.871 115.981 286.95 74.7163 286.95C33.4516 286.95 0 289.871 0 293.475C0 297.079 33.4516 300 74.7163 300Z" fill="#E6E6E6"/>
<path d="M57.1117 66.5647C70.1146 60.2055 86.3099 64.2346 102.126 67.031C102.273 63.6446 104.058 59.5231 102.189 57.1605C99.9183 54.2902 100.127 51.2744 101.494 48.2411C104.987 40.4846 99.9818 32.2313 94.9278 25.3687C93.7887 23.8254 92.3491 22.6129 90.7259 21.8295C89.1026 21.0461 87.3416 20.714 85.5858 20.8601L76.2238 21.629C73.9456 21.8162 71.7715 22.7988 69.9923 24.4455C68.2132 26.0922 66.9138 28.3244 66.2681 30.8434C64.0326 34.3392 62.8362 37.8254 63.5895 41.2933C60.2411 43.9244 59.6786 47.1004 61.1832 50.6807C62.459 52.935 62.4455 55.1294 61.1251 57.2631C59.3912 59.9833 58.0631 63.0164 57.1954 66.2381L57.1117 66.5647Z" fill="#2F2E41"/>
<path d="M366.114 259.345H101.099C98.7425 259.345 96.4823 258.269 94.8158 256.353C93.1493 254.436 92.2131 251.837 92.2131 249.128C188.281 236.29 282.543 236.29 375 249.128C375 251.837 374.064 254.436 372.397 256.353C370.731 258.269 368.471 259.345 366.114 259.345Z" fill="#2F2E41"/>
<path d="M375 249.729L92.2131 249.128L124.987 185.719L125.144 185.418V45.6724C125.144 43.9762 125.434 42.2965 125.999 40.7294C126.563 39.1623 127.391 37.7384 128.434 36.539C129.477 35.3396 130.715 34.3882 132.078 33.7391C133.441 33.0901 134.902 32.7561 136.377 32.7562H329.268C330.743 32.7561 332.204 33.0901 333.567 33.7391C334.93 34.3882 336.168 35.3396 337.211 36.539C338.254 37.7384 339.082 39.1623 339.646 40.7294C340.211 42.2965 340.501 43.9762 340.501 45.6724V186.38L375 249.729Z" fill="#3F3D56"/>
<path d="M136.121 41.7717C135.151 41.773 134.221 42.2166 133.535 43.0054C132.849 43.7941 132.463 44.8635 132.462 45.9789V173.398C132.463 174.513 132.849 175.582 133.535 176.371C134.221 177.16 135.151 177.604 136.121 177.605H331.092C332.062 177.604 332.992 177.16 333.678 176.371C334.364 175.582 334.75 174.513 334.751 173.398V45.9789C334.75 44.8635 334.364 43.7942 333.678 43.0054C332.992 42.2167 332.062 41.773 331.092 41.7717H136.121Z" fill="white"/>
<path d="M136.938 194.434C136.638 194.434 136.345 194.533 136.092 194.719C135.84 194.905 135.639 195.17 135.513 195.483L125.414 220.727C125.305 221.001 125.256 221.303 125.275 221.605C125.293 221.907 125.377 222.198 125.519 222.453C125.66 222.707 125.856 222.917 126.086 223.062C126.317 223.207 126.576 223.283 126.839 223.283H339.209C339.476 223.283 339.739 223.205 339.973 223.055C340.206 222.905 340.402 222.689 340.543 222.428C340.683 222.167 340.763 221.868 340.775 221.561C340.787 221.254 340.731 220.949 340.611 220.674L329.634 195.43C329.505 195.13 329.305 194.878 329.057 194.702C328.809 194.526 328.523 194.433 328.232 194.434H136.938Z" fill="#2F2E41"/>
<path d="M232.822 39.6681C234.122 39.6681 235.175 38.4572 235.175 36.9634C235.175 35.4697 234.122 34.2588 232.822 34.2588C231.523 34.2588 230.47 35.4697 230.47 36.9634C230.47 38.4572 231.523 39.6681 232.822 39.6681Z" fill="white"/>
<path d="M211.948 228.092C211.604 228.092 211.269 228.223 210.995 228.464C210.721 228.705 210.524 229.043 210.434 229.426L207.901 240.244C207.838 240.511 207.83 240.792 207.877 241.063C207.924 241.335 208.024 241.59 208.17 241.81C208.317 242.03 208.505 242.208 208.721 242.33C208.937 242.453 209.174 242.516 209.415 242.516H257.59C257.84 242.516 258.086 242.448 258.309 242.316C258.531 242.184 258.722 241.993 258.867 241.759C259.012 241.525 259.106 241.254 259.142 240.97C259.177 240.685 259.153 240.395 259.071 240.123L255.815 229.305C255.708 228.951 255.508 228.643 255.242 228.426C254.977 228.209 254.659 228.092 254.333 228.092H211.948Z" fill="#2F2E41"/>
<path d="M340.501 183.315V185.719H124.987L125.149 185.418V183.315H340.501Z" fill="#2F2E41"/>
<path d="M334.49 84.1444C354.698 84.1444 371.08 65.3081 371.08 42.0722C371.08 18.8364 354.698 0 334.49 0C314.282 0 297.9 18.8364 297.9 42.0722C297.9 65.3081 314.282 84.1444 334.49 84.1444Z" fill="#7C000B"/>
<path d="M349.648 60.4037H319.331C318.777 60.4031 318.245 60.1496 317.853 59.6988C317.461 59.2481 317.241 58.637 317.24 57.9996V36.9634C317.241 36.326 317.461 35.7149 317.853 35.2642C318.245 34.8135 318.777 34.56 319.331 34.5593H349.648C350.203 34.56 350.734 34.8135 351.126 35.2642C351.518 35.7149 351.739 36.326 351.739 36.9634V57.9996C351.739 58.637 351.518 59.2481 351.126 59.6988C350.734 60.1496 350.203 60.4031 349.648 60.4037ZM319.331 36.9635V57.9996H349.65L349.648 36.9634L319.331 36.9635Z" fill="white"/>
<path d="M343.899 36.9634H325.081V27.3469C325.081 20.3817 329.038 15.3263 334.49 15.3263C339.942 15.3263 343.899 20.3817 343.899 27.3469L343.899 36.9634ZM327.172 34.5593H341.808V27.3469C341.808 21.6849 338.799 17.7304 334.49 17.7304C330.181 17.7304 327.172 21.685 327.172 27.3469L327.172 34.5593Z" fill="white"/>
<path d="M334.49 49.2846C335.645 49.2846 336.581 48.2082 336.581 46.8804C336.581 45.5527 335.645 44.4763 334.49 44.4763C333.335 44.4763 332.399 45.5527 332.399 46.8804C332.399 48.2082 333.335 49.2846 334.49 49.2846Z" fill="white"/>
<path d="M308.947 134.386H158.266C157.526 134.385 156.817 134.046 156.294 133.445C155.771 132.843 155.477 132.028 155.476 131.177V88.1993C155.477 87.3487 155.771 86.5332 156.294 85.9317C156.817 85.3302 157.526 84.9918 158.266 84.9908H308.947C309.687 84.9918 310.396 85.3302 310.919 85.9317C311.442 86.5332 311.736 87.3487 311.737 88.1993V131.177C311.736 132.028 311.442 132.843 310.919 133.445C310.396 134.046 309.687 134.385 308.947 134.386ZM158.266 86.2743C157.822 86.2748 157.397 86.4778 157.083 86.8387C156.769 87.1996 156.592 87.6889 156.592 88.1993V131.177C156.592 131.688 156.769 132.177 157.083 132.538C157.397 132.899 157.822 133.102 158.266 133.102H308.947C309.391 133.102 309.816 132.899 310.13 132.538C310.444 132.177 310.621 131.688 310.621 131.177V88.1993C310.621 87.6889 310.444 87.1996 310.13 86.8387C309.816 86.4778 309.391 86.2748 308.947 86.2742L158.266 86.2743Z" fill="#E6E6E6"/>
<path d="M181.679 121.109C187.956 121.109 193.045 115.257 193.045 108.039C193.045 100.821 187.956 94.9695 181.679 94.9695C175.401 94.9695 170.312 100.821 170.312 108.039C170.312 115.257 175.401 121.109 181.679 121.109Z" fill="#E6E6E6"/>
<path d="M207.93 99.3261C207.681 99.3257 207.434 99.3817 207.204 99.4909C206.974 99.6002 206.765 99.7606 206.589 99.9629C206.412 100.165 206.273 100.406 206.177 100.67C206.082 100.935 206.033 101.218 206.033 101.504C206.033 101.791 206.082 102.074 206.177 102.339C206.273 102.603 206.412 102.844 206.589 103.046C206.765 103.248 206.974 103.409 207.204 103.518C207.434 103.627 207.681 103.683 207.93 103.683H297.239C297.741 103.683 298.223 103.453 298.578 103.045C298.933 102.636 299.133 102.082 299.133 101.504C299.133 100.927 298.933 100.373 298.578 99.9641C298.223 99.5556 297.741 99.3261 297.239 99.3261H207.93Z" fill="#E6E6E6"/>
<path d="M207.93 112.396C207.428 112.396 206.946 112.625 206.591 113.034C206.235 113.442 206.036 113.996 206.036 114.574C206.036 115.152 206.235 115.706 206.591 116.114C206.946 116.523 207.428 116.752 207.93 116.752H246.36C246.862 116.752 247.344 116.523 247.699 116.114C248.055 115.706 248.254 115.152 248.254 114.574C248.254 113.996 248.055 113.442 247.699 113.034C247.344 112.625 246.862 112.396 246.36 112.396H207.93Z" fill="#E6E6E6"/>
<path d="M124.616 113.277L96.7618 130.305L96.4092 116.115C105.501 114.37 114.15 111.331 122.148 106.385L125.061 98.109C125.379 97.2073 125.895 96.4159 126.559 95.8126C127.222 95.2094 128.011 94.815 128.848 94.6681C129.684 94.5213 130.539 94.627 131.329 94.975C132.119 95.323 132.817 95.9012 133.354 96.653C134.14 97.7528 134.533 99.155 134.453 100.575C134.373 101.996 133.827 103.328 132.925 104.303L124.616 113.277Z" fill="#FFB8B8"/>
<path d="M56.5565 211.588C56.3533 210.731 56.3102 209.835 56.4299 208.957C56.5497 208.08 56.8296 207.241 57.2513 206.497L63.3702 195.7C64.8174 193.146 67.0381 191.301 69.6014 190.523C72.1647 189.746 74.8878 190.091 77.2423 191.491C74.6708 196.524 75.0293 200.94 78.1305 204.777C73.3162 207.479 68.8667 210.967 64.9198 215.132C64.1993 215.697 63.3718 216.056 62.5063 216.179C61.6408 216.301 60.7624 216.184 59.9441 215.838C59.1259 215.491 58.3916 214.924 57.8023 214.185C57.2131 213.446 56.7859 212.556 56.5565 211.588Z" fill="#2F2E41"/>
<path d="M125.885 197.47C124.959 199.245 123.652 200.716 122.089 201.742C120.527 202.768 118.761 203.316 116.961 203.331L76.3116 203.685L74.5487 191.928L92.5307 185.847L77.3694 172.468L93.9411 150.17L124.04 182.427C125.8 184.313 126.943 186.835 127.278 189.573C127.614 192.311 127.122 195.099 125.885 197.47Z" fill="#2F2E41"/>
<path d="M69.965 277.877H60.445C51.8976 210.509 43.197 142.952 68.9072 117.737L99.2298 123.412L95.3514 153.008L78.4271 175.306L69.965 277.877Z" fill="#2F2E41"/>
<path d="M78.3334 293.138C77.5882 293.372 76.8084 293.421 76.0452 293.284C75.2821 293.146 74.5529 292.824 73.9057 292.339L63.5691 290.742C61.3479 289.078 59.7435 286.525 59.0671 283.577C58.3907 280.63 58.6905 277.499 59.9084 274.791C64.2859 277.748 68.1258 277.336 71.4628 273.769C73.8205 279.244 77.7053 278.91 81.4154 283.521C81.9067 284.35 82.2186 285.301 82.3254 286.297C82.4321 287.292 82.3304 288.302 82.0289 289.243C81.7274 290.183 81.2347 291.028 80.5919 291.705C79.9491 292.383 79.1748 292.874 78.3334 293.138Z" fill="#2F2E41"/>
<path d="M92.5307 72.735L74.9012 67.87C77.8292 60.9787 78.0703 53.3106 76.6642 45.1665L88.6522 44.7611C89.0278 54.8885 90.1642 64.3501 92.5307 72.735Z" fill="#FFB8B8"/>
<path d="M97.3758 135.619C84.5423 145.675 75.4744 135.963 68.5546 120.98C69.5162 111.811 67.9592 100.839 65.0757 88.9174C63.7933 83.6589 64.2721 78.0388 66.4175 73.1664C68.5629 68.2941 72.2191 64.5237 76.6641 62.5995L91.8255 69.8971C104.699 81.963 107.233 95.0327 102.403 108.817L97.3758 135.619Z" fill="#7C000B"/>
<path d="M60.445 82.8705L46.3415 91.3843L71.3753 108.412L74.8586 118.291C75.0911 118.951 75.2043 119.658 75.1915 120.369C75.1786 121.081 75.0398 121.781 74.7837 122.429C74.5275 123.077 74.1593 123.658 73.7015 124.137C73.2437 124.615 72.7059 124.982 72.1209 125.214C71.4559 125.477 70.7469 125.56 70.0493 125.456C69.3517 125.352 68.6845 125.064 68.1 124.614C67.5155 124.164 67.0295 123.565 66.6801 122.863C66.3307 122.161 66.1274 121.375 66.0861 120.568L65.7339 113.682L33.9162 101.609C32.8442 101.202 31.8667 100.521 31.0579 99.6151C30.249 98.7096 29.6299 97.6044 29.2475 96.3831C28.6902 94.6029 28.6618 92.6604 29.1669 90.8597C29.6719 89.0589 30.6819 87.5015 32.0388 86.4312L57.6243 66.2483L60.445 82.8705Z" fill="#FFB8B8"/>
<path d="M74.5487 84.4922C68.6666 81.5282 63.3179 84.748 56.5667 87.3301L55.5089 65.8429C62.2126 61.7346 68.6042 60.6269 74.5487 63.8158L74.5487 84.4922Z" fill="#7C000B"/>
<path d="M81.5849 55.4045C87.8013 55.4045 92.8407 49.61 92.8407 42.4622C92.8407 35.3144 87.8013 29.52 81.5849 29.52C75.3686 29.52 70.3292 35.3144 70.3292 42.4622C70.3292 49.61 75.3686 55.4045 81.5849 55.4045Z" fill="#FFB8B8"/>
<path d="M95.0505 40.8293C83.9063 42.0843 75.4146 39.9886 69.9874 34.0216V29.2161H94.1047L95.0505 40.8293Z" fill="#2F2E41"/>
</g>
<defs>
<clipPath id="clip0_11_425">
<rect width="375" height="300" fill="white"/>
</clipPath>
</defs>
</svg>
